<?xml version="1.0" encoding="utf-8"?>
<!-- Generator: Adobe Illustrator 22.0.1, SVG Export Plug-In . SVG Version: 6.00 Build 0)  -->
<svg version="1.1" id="Layer_1" xmlns="http://www.w3.org/2000/svg" xmlns:xlink="http://www.w3.org/1999/xlink" x="0px" y="0px"
	 width="720px" height="720px" viewBox="0 0 720 720" style="enable-background:new 0 0 720 720;" xml:space="preserve">
<style type="text/css">
	.st0{fill:#FFFFFF;}
</style>
<g>
	<path d="M374.3296204,575.9758911c9.2093506,0,37.4494629-0.0753784,60.9854431-20.1374512
		c20.8642273-18.9161987,23.0021973-41.1917114,23.6143188-66.259491l-0.1537781-70.6169128
		c0-22.0854797,0-49.1525879-23.0806274-68.2467041c-5.2159729-4.3172302-11.0849609-7.7779541-17.3873596-10.2526855
		c10.5179749-6.9938354,18.3047791-17.3982544,22.0493469-29.4613953
		c2.6835938-9.8266907,3.8179932-20.0118103,3.3622742-30.1881409l-0.1899719-62.8580322
		c-0.5729675-17.3873444-2.4848022-37.2172546-16.5460205-53.2687378
		c-12.4147949-13.6662445-31.1018372-20.7617035-54.785553-20.7617035h-0.4583435l-85.2511292,0.229187
		c-2.5762634,0.0328064-5.0404053,1.0590668-6.8783264,2.8647156c-1.8258057,1.7551727-2.8367615,4.1923676-2.7893372,6.7245636
		l0.7267151,412.7279663c-0.0224915,3.3735962,1.7539978,6.5037842,4.6619568,8.2141724
		c1.6184387,1.0023193,3.4850159,1.5318604,5.3887024,1.5288696l86.7407532-0.229187L374.3296204,575.9758911z
		 M407.23172,393.3604431c2.3117981,8.0939026,3.3295288,16.5023499,3.0155029,24.914032l0.1538086,58.5006104
		c0,26.6720581-1.6434631,39.2014771-11.8448792,47.0779419c-6.0762329,4.3574219-13.5275269,6.9175415-32.5673828,7.5658569
		c0,0-32.6728821,0.0753784-35.1938477,0.0753784c-2.9431152,0-4.0890198-1.8093262-4.0890198-4.5865479
		c0-24.0727234-0.34375-156.7093201-0.34375-157.8160095c-0.2106934-1.388031,0.7437439-2.6840515,2.1317749-2.8947449
		c0.2307434-0.0350037,0.46521-0.0380859,0.6967468-0.0091553c11.4883118-0.2487488,22.9815979,0.1337891,34.427948,1.145874
		c9.972229,1.0705261,20.5958252,2.8647156,29.1929932,8.3287964c6.6938782,4.0375061,11.7740479,10.2786865,14.3688354,17.65271
		L407.23172,393.3604431z M328.4006348,187.9327698h23.4997559c30.6072998,0,43.7910461,4.5232544,43.7910461,35.806015v52.9581451
		c-0.3829651,12.7254028-0.6030884,34.2771301-25.7945557,41.8430176c-7.032135,1.9872131-10.3944092,2.5993652-25.716156,3.1331177
		h-15.1709595c-0.0994263,0.0204773-0.2001953,0.0335999-0.3015442,0.0392151c-2.3701782,0-3.0155029-1.260498-3.0155029-3.1723328
		c0-1.2242737-0.1537781-127.094101-0.1537781-127.094101c0-2.0626068,0.7267151-3.2476959,2.8646851-3.4768677
		L328.4006348,187.9327698z M360.0030212,36.0000114C181.0627441,35.9983482,36.0016632,181.0567322,36,359.9969788
		C35.9983406,538.9372559,181.0567322,683.9983521,359.9969788,684S683.9983521,538.9432983,684,360.0030212l0,0V360
		C683.7890015,181.1472321,538.8527832,36.2110367,360,36L360.0030212,36.0000114z M653.3203735,280.9005432
		c5.6454468,20.9116516,9.0271606,42.3695068,10.086792,64.0039063
		c-8.940918,17.7311096-26.5182495,32.3261108-39.3190308,39.5029907
		c-1.1066895-8.3680115-2.5601807-17.8457031-4.5232544-26.5574951c-1.9862061-8.941925-4.1513672-17.7180481-6.4954224-26.3283081
		c10.1411743-6.2072144,19.0210571-14.270752,26.1745605-23.7681274c6.0843506-8.150116,10.8309937-17.2178345,14.0612183-26.86203
		L653.3203735,280.9005432z M360.0030212,56.2128792c112.6015015,0.0683784,215.9396667,62.3790092,268.5540466,161.9321594
		c12.7947388,23.7505951,11.3675537,52.6367645-3.7060547,75.0104523c-0.572937,0.8413391-1.145874,1.6434326-1.8093262,2.4847717
		c-4.5057983,5.9875793-9.9064331,11.2458496-16.0122681,15.5901184
		c-16.4314575-51.9690857-39.7412109-97.3251648-69.657959-135.1575623
		c-30.5028687-38.7921906-69.0527344-70.5108185-112.9937134-92.9707718
		C402.089325,71.723877,378.6630554,62.728157,354.4875793,56.2641258c1.8334351,0,3.6185913-0.075386,5.4640808-0.075386
		L360.0030212,56.2128792z M162.5965881,590.6884766C97.056572,534.7418823,58.4044075,453.5606079,56.2913094,367.4151001
		c18.4358177,19.1983948,39.2222176,35.9918518,61.8659248,49.9818726
		c42.4982986,26.0145569,89.7368088,43.3363953,138.9782104,50.961853v-20.5053711
		c-45.0807343-7.3577576-88.3224487-23.3292236-127.3625031-47.041748
		c-41.8792114-25.9332581-65.3819885-53.9170532-72.7548828-63.5455322
		c3.5114594-47.6759644,18.3127747-93.832901,43.1819077-134.6600037
		c12.8761673-4.851944,72.4503098-23.1952057,147.7291565,17.9602966c2.8647156,1.5680695,5.8078461,3.2084961,8.7901764,4.8911438
		v-23.1590118c-59.1037292-31.9823456-109.4022064-30.8364563-139.0927734-25.2969971
		c29.9617081-39.5907593,69.1029434-71.3003311,114.0490799-92.3948059
		c33.7243042-15.7778778,71.783844-19.72258,108.0271606-11.1965408
		c26.1750183,6.1434708,51.5140381,15.4197006,75.468811,27.6279755
		c41.3578186,21.1439209,77.6410522,51.0013351,106.3505249,87.5157394
		c29.1176758,36.8372955,51.7006836,81.3550568,67.4445801,132.5973969
		c-10.7073364,4.3464355-21.9331665,7.2859192-33.3966064,8.7449646
		c-28.7738647,3.9744263-61.3683472-3.1331177-94.9881287-16.0122986
		c-1.5391235,6.5888672-4.1599426,12.8770142-7.7558899,18.6086426
		c29.6513672,11.3865051,58.9619751,18.7232056,86.3607788,18.7232056c6.40271,0.0063782,12.7987671-0.4147034,19.1453857-1.2604675
		c12.4122925-1.6118469,24.5869751-4.7036133,36.2643433-9.2093506c1.8716431,7.0361633,3.6165771,14.1818848,5.2349243,21.4371643
		c2.3458252,10.5940857,4.1065674,21.3092651,5.2740479,32.0969543
		c-29.6151733,15.285553-71.9526978,30.7218933-126.0235901,42.3375549v20.5053711
		c49.2159119-10.31604,93.1999207-24.4255371,127.5132751-40.9624939
		c0.4968262,17.6839294-0.7576904,35.3735962-3.7453003,52.8103943
		c-18.1943359,11.4840088-35.3297119,24.5656433-51.203064,39.0898438
		c-48.1484375,42.5185547-94.8433838,79.9407959-179.0239868,106.8782959
		c-42.3406067,13.5697021-84.9827271,15.0925293-116.6605072,13.2983398
		c-34.4093933-1.9497681-67.220047-15.1727905-93.3657837-37.6273804L162.5965881,590.6884766z M581.4008179,538.4510498
		c-3.4015503,7.5387573-6.9537354,14.4743652-10.4698486,20.8642578
		c-17.7336426,31.928894-44.8534546,57.6348877-77.6851807,73.635376
		c-70.5466309,34.4805908-151.7086487,40.2877197-226.4456787,16.2022705
		c3.3170471,0.0753784,6.7245789,0.1538086,10.2526855,0.1538086c34.4772949,0.2484741,68.7870178-4.8167114,101.7217407-15.0171509
		c87.7720337-28.1255493,138.1760254-68.5513306,186.2460938-110.9702759
		c12.2278442-10.7744141,22.5438843-19.0669861,31.2948608-25.4508057
		c-3.951416,13.8910217-8.9327393,27.4682007-14.9025879,40.6187134L581.4008179,538.4510498z M600.3532104,545.5193481
		c9.0548706-20.2253418,15.8711548-41.3801575,20.3274536-63.0872192c12.1886597-6.0762024,17.65271-5.6178894,19.4891357-5.1263123
		c-10.2598267,24.3629456-23.6398926,47.2904968-39.8045654,68.207489L600.3532104,545.5193481z M648.3478394,455.6062927
		c-2.3519287-0.6629639-4.8134766-0.8444824-7.2371826-0.5337524c-5.6401978,0.4786682-11.1985474,1.6598206-16.5460205,3.5160828
		c2.1287231-17.4924316,2.678772-35.1409607,1.6434326-52.7319946c6.284729-3.6063538,12.3809814-7.5316162,18.2648926-11.760437
		c6.6455078-4.7640686,12.897583-10.0541992,18.6960449-15.8193054
		c-1.5662842,26.317627-6.5629883,52.3179932-14.8633423,77.3414612L648.3478394,455.6062927z"/>
	<path class="st0" d="M640.1697998,477.3056641c-10.2597656,24.3630676-23.6399536,47.2907715-39.8045044,68.2077026
		l-0.012085,0.0058594c9.0546875-20.2250977,15.8710938-41.3800659,20.3275757-63.0869446
		C632.8692627,476.3559875,638.333313,476.8141174,640.1697998,477.3056641z M255.962326,628.2373047
		c-34.4092255-1.9494629-67.2199707-15.1724243-93.3656769-37.6271973v0.0783081
		C97.0565643,534.7419434,58.4044609,453.5607605,56.2912254,367.4151306
		c18.4359627,19.1983643,39.222271,35.9919128,61.8661385,49.9819336
		c42.4981537,26.0144653,89.736618,43.3363647,138.9781036,50.9619141v-20.5055542
		c-45.0806427-7.3577881-88.3226166-23.3291931-127.3625641-47.0415955
		c-41.8790741-25.9333496-65.3819122-53.9171143-72.7548752-63.5457153
		c3.5114326-47.6758423,18.312767-93.8327637,43.1819229-134.6600037
		c12.876297-4.8517456,72.4502869-23.1951599,147.7291565,17.9605103c2.8648071,1.5678253,5.8079224,3.2083893,8.7900391,4.8910675
		v-23.1589508c-59.1034851-31.9824219-109.4020691-30.8364868-139.0926514-25.2972565
		c29.9617233-39.5906219,69.1028976-71.3003311,114.0492172-92.3946381
		c33.7242126-15.7779312,71.783844-19.7227249,108.0270996-11.1967239
		c26.1751099,6.1434631,51.5138245,15.4197922,75.4685974,27.6280975
		c41.3581238,21.1438293,77.6412964,51.0012436,106.3506165,87.5156479
		c29.1176147,36.837265,51.7008057,81.3551636,67.4447021,132.5975342
		c-10.7073364,4.346283-21.9331665,7.2859802-33.3967285,8.744873
		c-28.7736816,3.9744873-61.3683777-3.1331787-94.9879456-16.0122681
		c-1.5393677,6.5888977-4.1599426,12.8769226-7.7558899,18.6087036
		c29.6512756,11.3864441,58.961731,18.7232056,86.3607788,18.7232056c6.4025269,0.0065002,12.798584-0.4147949,19.1454468-1.2604675
		c12.4119263-1.6117554,24.586853-4.7037659,36.2642822-9.2094421c1.87146,7.0361633,3.616333,14.1819153,5.2346191,21.4372559
		c2.3460083,10.5940552,4.1066895,21.3091431,5.274292,32.0969543
		c-29.6153564,15.2854614-71.9528198,30.7219543-126.0234985,42.3374939v20.505249
		c49.2158203-10.3157654,93.1997681-24.425293,127.5130005-40.9622192
		c0.4968262,17.6837769-0.7574463,35.3734436-3.7451172,52.8102112
		c-18.1942139,11.4839783-35.3297729,24.5658264-51.203064,39.0897827
		c-48.1485291,42.5186157-94.8434448,79.9408569-179.0240784,106.878418
		C330.2822266,628.5087891,287.6401367,630.0317383,255.962326,628.2373047z M282.209259,574.6851807
		c1.6182556,1.0022583,3.4851074,1.5318604,5.3887939,1.5291138l86.7405701-0.2293701l-0.0090027-0.0089722
		c9.2094727,0,37.4495544-0.0755615,60.9855042-20.1375122c20.8640137-18.9160767,23.0020142-41.1915894,23.6142883-66.2594604
		l-0.1538391-70.6168823c0-22.0854492,0-49.1526794-23.0806274-68.2467041
		c-5.216095-4.3171692-11.0849915-7.7781677-17.3872375-10.2526245c10.5178833-6.9940796,18.304718-17.398407,22.0492249-29.4615173
		c2.6837158-9.8266907,3.8178711-20.0118408,3.3622437-30.1880188l-0.1900635-62.8582153
		c-0.5729675-17.3872375-2.4846802-37.2170563-16.5458984-53.268631
		c-12.4147644-13.6662445-31.1017761-20.7618561-54.7854004-20.7618561h-0.4584351l-85.2510376,0.2293701
		c-2.5763245,0.0328064-5.0405579,1.0589447-6.8783264,2.864502c-1.8259583,1.7554016-2.8369446,4.1924133-2.7895813,6.7247772
		l0.7268066,412.7280273C277.5246582,569.8445435,279.3014221,572.9749146,282.209259,574.6851807z M378.7746582,634.2894897
		c-32.9348755,10.2006226-67.2444458,15.265625-101.7217407,15.017395c-3.5281677,0-6.9359131-0.0786133-10.2529297-0.1538696
		c74.7371521,24.0853882,155.8991699,18.2784424,226.4457703-16.2023315
		c32.8318176-16.0004883,59.9516296-41.706604,77.6852722-73.635498
		c3.5160522-6.3898315,7.0683594-13.3254395,10.4699097-20.8640137l0.012085,0.0362549
		c5.9697876-13.1505737,10.9509277-26.7279663,14.9025269-40.6189575
		c-8.7510376,6.3840027-19.0671387,14.6765747-31.2949219,25.4508057
		C516.9507446,565.7381592,466.5466003,606.1639404,378.7746582,634.2894897z M328.7082214,321.7123108
		c0.1012268-0.0055847,0.2021179-0.0188904,0.3014832-0.0393066h15.170929
		c15.321991-0.5336609,18.6842041-1.1459351,25.7163696-3.1331787c25.1913757-7.5658264,25.4114685-29.1176147,25.7943726-41.842865
		V223.7388c0-31.2828522-13.1836548-35.8061829-43.7911072-35.8061829h-23.4997253l0.0030823,0.0362244
		c-2.1380005,0.2293701-2.8648071,1.4142914-2.8648071,3.477066c0,0,0.1538391,125.8696747,0.1538391,127.0939178
		C325.6926575,320.4518433,326.3380432,321.7123108,328.7082214,321.7123108z M363.6185913,367.3337097
		c-11.446228-1.0121765-22.9394836-1.3947754-34.4277954-1.1459045c-0.2315369-0.0288086-0.4661865-0.026001-0.6967773,0.0092773
		c-1.3880005,0.2104797-2.3426208,1.5065308-2.1318054,2.8945313c0,1.1069031,0.3435669,133.7434692,0.3435669,157.8161621
		c0,2.7772217,1.1459351,4.5864868,4.0890503,4.5864868c2.5209045,0,35.1939087-0.0752563,35.1939087-0.0752563
		c19.0398865-0.6484375,26.4911499-3.2086792,32.5674438-7.5661011
		c10.2012329-7.8762817,11.8449097-20.4058838,11.8449097-47.0777893l-0.1538391-58.5005188
		c0.3138733-8.4117737-0.7035828-16.8201599-3.015564-24.914032l-0.0513916-0.0455017
		c-2.594574-7.3739014-7.6747437-13.6151733-14.3685913-17.6525269
		C384.2145081,370.1985168,373.5907593,368.4041138,363.6185913,367.3337097z M613.069458,331.5216675
		c2.3441772,8.610199,4.5090942,17.3862915,6.4954224,26.3283386c1.9631348,8.711731,3.4163818,18.1895752,4.5233154,26.557373
		c12.8007813-7.1766968,30.3780518-21.7718811,39.3188477-39.5030212
		c-1.0595703-21.6344604-4.4412842-43.0921631-10.0866699-64.0038147l-0.0151978-0.0089722
		c-3.2300415,9.644043-7.9768677,18.7117615-14.0612183,26.861969
		C632.0904541,317.250885,623.2106323,325.3144226,613.069458,331.5216675z M626.2079468,405.8567505
		c1.0354004,17.5909119,0.4853516,35.2394104-1.6433716,52.7318726c5.3476563-1.8563232,10.9057617-3.0375061,16.5462036-3.5160828
		c2.411377-0.3092346,4.8594971-0.1271973,7.2008667,0.5271606c8.2963257-25.0177307,13.2913818-51.0117798,14.8573608-77.3227844
		c-5.798645,5.7652283-12.050415,11.0552673-18.6959839,15.8194275
		C638.5889893,398.3249817,632.4928589,402.2502747,626.2079468,405.8567505z M360.0031433,56.2129364l-0.0513916-0.0241432
		c-1.8454895,0-3.6306152,0.0752182-5.4640198,0.0752182c24.1751709,6.4641495,47.6015625,15.4597282,69.8900757,26.8381538
		c43.940918,22.4596863,82.4908752,54.1783676,112.9936523,92.9706955
		c29.9168701,37.832428,53.2265625,83.1885834,69.657959,135.1574554
		c6.1056519-4.3441162,11.5065308-9.6026001,16.012207-15.5900574c0.6633911-0.8413391,1.2363281-1.6433411,1.8092651-2.4846802
		c15.0737305-22.3736267,16.5010376-51.260025,3.7061768-75.010498
		C575.9428101,118.5919876,472.6046143,56.2813454,360.0031433,56.2129364z"/>
</g>
</svg>
