<?xml version="1.0" encoding="utf-8"?>
<!-- Generator: Adobe Illustrator 22.0.1, SVG Export Plug-In . SVG Version: 6.00 Build 0)  -->
<svg version="1.1" id="Layer_1" xmlns="http://www.w3.org/2000/svg" xmlns:xlink="http://www.w3.org/1999/xlink" x="0px" y="0px"
	 width="720px" height="720px" viewBox="0 0 720 720" style="enable-background:new 0 0 720 720;" xml:space="preserve">
<style type="text/css">
	.st0{fill:#CE1141;}
</style>
<g>
	<path d="M443.8329468,337.0184937l0.6964111-57.974884c0-27.1599274-28.3782654-31.6864929-49.2702942-31.5122833
		c13.9279785-4.7007751,30.8157654-12.5350342,43.0027771-25.766861
		c12.8833008-11.8387451,21.936554-28.5524597,20.3696899-51.8815613
		c-2.6115417-39.3465576-51.8818359-58.8458939-133.3606873-51.0116425c-1.3258362,0.2024384-2.6633606,0.31884-4.0042419,0.3484039
		C317.8374634,90.9138489,311.5374451,63.0304756,302.4638062,36l-4.004364,4.0039635
		c-9.2966003,27.8260994-16.341217,56.3543358-21.0660706,85.309021
		c-27.9623566,4.6858444-55.5873566,11.1994705-82.6974792,19.4993362l-4.004364,4.0045013
		c0,0,39.3466949-3.4821625,84.090271-2.9598236c-5.0488892,51.0110931,0.1741943,99.4110413,0,190.8136292
		c-72.4255829-2.089325-135.9719696,9.9236145-151.4669495,29.4229431
		c-5.0489044,4.1781616-7.8345261,8.8789368-7.6603241,13.7539063
		c0.8704758,22.1105042,66.6802826,42.4803162,159.1272736,50.3148193l4.004364,125.7002563l4.004364-4.0045166
		l6.4415894-85.3089905c-0.022644-1.2385864,0.1536865-2.4729309,0.5223389-3.6560974
		c1.9151306,0.3483887,3.8301392,2.785614,3.8301392,7.1385193l2.7856445,112.29422l4.004364-4.0045166l6.9640503-91.4023132
		c-0.036499-1.6983337,0.1388855-3.3940125,0.5221863-5.0491638c1.9151611,0.3483887,3.8302917,3.1340027,3.6560974,8.3573914
		l3.1338806,116.9949646l4.0042419-4.0045166l5.571228-170.2695923c10.6201477,0.348114,21.4143677,0.5220642,32.5567017,0.5220642
		c11.6647034,0,23.155304-0.1739502,34.4718628-0.5220642l5.571228,177.5817871l4.004364-4.0044556l4.7006226-92.9691162
		c-0.0391541-1.583252,0.1365356-3.1643677,0.5223389-4.7007446c1.7409668,0.3483887,3.4820251,3.1340332,3.4820251,8.0089722
		l4.8745728,130.4005127l4.004364-4.0039673l4.8748474-112.6431885c0.0159912-1.3632202,0.2511597-2.715271,0.6962585-4.0039673
		c2.2634277,0,4.7007751,2.7856445,4.7007751,8.1826782L432.6904907,684l4.0043335-4.0045166l5.9194031-250.0073853
		c79.0413513-6.9637756,139.1058655-22.8070374,154.0783386-41.2616882
		c4.8747559-4.1781616,7.6604614-8.5307922,7.6604614-12.8834229
		C603.3085327,351.8170776,530.0124512,333.0145264,443.8329468,337.0184937z M274.0855408,400.3909607v3.6560974
		c-63.372467-6.0933228-106.2010345-18.9767456-106.2010345-35.1678467
		c0.0215759-1.2348633,0.3830261-2.4396362,1.0446777-3.4821777
		c14.7985687-10.4459229,60.4126282-17.0618591,106.0268097-23.8517151
		C274.9559937,359.4776611,274.6078796,378.9769897,274.0855408,400.3909607z M403.2676697,185.7258759
		c2.4373474,17.9323273-2.785614,31.5120239-12.0128174,41.7840424
		c-16.5395203,14.9725037-42.4804382,21.7623444-63.5465393,24.8963776
		c0.3481445-33.7755737-0.1740723-68.9436951-3.1337585-103.4155426
		C365.3139343,153.3433838,400.3079834,163.6151123,403.2676697,185.7258759z M391.2548523,407.5292053
		c-9.9237366,0.3481445-20.0215454,0.5223389-30.4674988,0.5223389c-12.1870117,0-24.1999817-0.1741943-35.6905823-0.6962585
		l0.5223389-14.4504395c-1.0445557-36.5612183,1.21875-82.523407,1.9151306-131.6196289
		c29.7710876,3.4819031,65.4615479,11.8387451,64.9393616,32.7306519L391.2548523,407.5292053z M548.9894409,379.3248596
		L548.9894409,379.3248596c-14.798584,11.6648254-53.9710388,20.7182312-105.8527527,25.2447815l0.6964111-62.3280334
		c59.3679504,7.6603088,107.5937195,16.3653259,107.5937195,30.6415405
		C551.322937,375.2356873,550.468811,377.4928284,548.9894409,379.3248596z"/>
	<path class="st0" d="M443.8329468,337.192688l0.6964111-57.9751282
		c-0.1740723-35.8646698-49.2702942-32.3825073-65.8098145-30.1194916
		c19.3251648-3.4818878,83.9162292-19.6730042,79.9119873-78.8672943
		c-2.6115417-39.3465576-51.8818359-58.8456345-133.3606873-51.0111084
		c-1.3258362,0.2024384-2.6633606,0.318573-4.0042419,0.3481369c-3.4291382-28.3058243-9.7291565-56.1894569-18.8027954-83.2196655
		c-11.3165588,35.1681213-17.9323425,62.8501205-21.5884094,88.6169739
		c-29.1655121,4.6975632-57.9634399,11.4461288-86.1795044,20.19561c0,0,39.3465576-3.4821625,84.090271-2.9598236
		c-5.0488892,51.7076416,0.1740723,100.8038635,0,194.9917908c-85.6572723-2.9595337-159.997879,13.5797119-159.1274109,38.9984436
		c0.6964035,22.1104736,66.680275,42.4802856,159.1274109,50.315094l4.004364,125.7001953l6.4417114-85.3089905
		c0.1740723-10.6203918,8.1826782-9.5757141,8.1826782-0.522583l2.9596863,112.2947083l6.9638977-91.4023132
		c-0.1740723-12.3613586,8.5309448-11.6650696,8.1826782-0.6968079l3.1338806,116.9949951l5.571106-174.4477844
		c11.8388672,0.348114,24.0257568,0.6962585,36.3868713,0.6962585c11.6646729,0,23.155426-0.1741943,34.4719543-0.5220642
		l5.5712585,177.5818176l4.7006226-92.9690552c0-11.839325,8.008606-11.3167114,8.008606-0.6968384l4.8748169,130.401001
		l4.8747253-112.6425781c0.348114-11.1425171,9.2271729-10.6204224,9.4013977,0l4.0042114,149.2034912l5.9193726-253.4895325
		v-0.1739197c94.0140381-7.8348083,161.9130249-28.2043457,161.9130249-50.315094h0.0001831
		C603.3086548,351.8170776,530.0124512,333.0145264,443.8329468,337.192688z M278.0897522,396.3869934l0.1742249,8.1826477
		c-65.8096924-6.0935669-110.3792114-19.1509399-110.3794708-35.6904297
		c0.0002594-14.9727783,55.5380707-22.9812317,111.0758514-31.3381042
		C278.9603577,355.4734192,278.6120911,374.9725037,278.0897522,396.3869934z M407.2720337,181.7216492
		c6.6157837,49.0959473-43.5249939,65.2875977-79.5637207,70.6846466
		c0.6577759-36.0164948-0.504364-72.0430908-3.4820251-107.9421082
		C366.7067261,148.6426086,404.1381531,158.7404175,407.2720337,181.7216492z M395.2590637,407.5292053
		c-11.142334,0.3481445-22.6329651,0.5223389-34.4718323,0.5223389
		c-12.1870117-0.1741943-24.0257874-0.3483887-35.6905823-0.6962585h0.0001221l0.5223389-14.4504395
		c-1.0445557-37.779541,1.3927917-85.309021,1.9151306-135.9719849
		c30.2933044,3.1334839,69.4659119,11.3164063,68.7695007,33.2529602L395.2590637,407.5292053z M443.1366882,404.5696411h-0.0002747
		l0.8706055-66.8543396c61.1091919,7.834259,111.4240112,16.7137146,111.4240112,31.1639099
		C555.4310303,385.4187012,509.468689,398.6502686,443.1366882,404.5696411z"/>
</g>
</svg>
