<?xml version="1.0" encoding="utf-8"?>
<!-- Generator: Adobe Illustrator 22.0.1, SVG Export Plug-In . SVG Version: 6.00 Build 0)  -->
<svg version="1.1" id="Layer_1" xmlns="http://www.w3.org/2000/svg" xmlns:xlink="http://www.w3.org/1999/xlink" x="0px" y="0px"
	 width="720px" height="720px" viewBox="0 0 720 720" style="enable-background:new 0 0 720 720;" xml:space="preserve">
<style type="text/css">
	.st0{fill:#0A2240;}
</style>
<path class="st0" d="M489.3427734,250.9519043c0.2858887,7.7177124,4.0018311,32.2999268,37.4450684,65.4573975l1.1433105,4.00177
	c-22.0096436-9.4327393-44.5910034-18.5796509-67.7441406-26.8689575
	c-17.1503906-6.0026245-32.871582-10.8619995-48.3069458-14.8637085c-8.5751953-2.2867432-16.864563-4.00177-24.868103-5.7167969
	c-8.5751953-1.7150879-16.864624-3.1442871-25.1539917-4.2875977l-2.0008545-0.2858887l-2.0008545,0.2858887
	c-9.7186279,1.4291992-19.4371338,3.1442261-29.4415894,5.1450806c-9.4327393,2.0009155-19.1513062,4.2876587-28.869873,6.8601685
	c-17.7221069,4.5734253-36.0158691,10.5761108-55.4530029,17.7221069
	c-15.7211914,6.0026855-32.5857544,12.862793-51.4512329,20.866333l0.8575439-2.8583984
	c33.729126-33.4432983,37.1592407-57.7397461,37.4450684-65.4573975l0.8575439-2.5725708h128.3422852h128.3422241
	L489.3427734,250.9519043z M432.1747437,174.918396c-18.2937622-10.2902832-18.8654785-24.868103-18.5796509-30.2990723
	l-0.5716553-2.0008545h-33.729187l-8.2893066,31.7282715l61.7415161,2.0008545L432.1747437,174.918396z M579.0966797,225.2262573
	l-10.0043945,30.0132446l2.0009155,4.5734863h89.7537842l3.7158813-11.1477661
	C620.5435181,128.3264771,507.350708,41.4309692,373.291626,36.2858887l10.5761108,68.0299683
	C466.7614136,111.461853,537.9356689,158.053833,579.0966797,225.2262573z M331.5588989,104.3158569l10.0043945,38.0167236
	h-33.729126l-0.5716553,2.0009155c0.2858276,5.4309692-0.2858887,20.0087891-18.5796509,30.2990723l-0.5716553,1.7150269
	l61.7415161-2.0008545l4.2875977,16.864563h-84.8945313l-0.5717163,2.0008545
	c0.8575439,6.2885132,0.5717163,24.5822754-30.5848999,38.0167847l-0.8575439,2.5725098l123.1972046-3.1442261
	l123.1971436,3.1442261l-0.8575439-2.5725098c-30.8707275-13.4345093-31.4424438-31.7282715-30.5848999-38.0167847
	l-0.5716553-2.0008545h-84.8945313l-4.859314,18.2937622l-1.7150269-0.5716553v-17.7221069v-17.1504517v-31.4423828v-105.18927
	v-1.7150269c-174.6484375,0-316.9968872,138.3466797-323.8570557,311.2800903l68.0299683-10.5761108
	C115.4636841,214.9360352,210.9343872,118.0361938,331.5588989,104.3158569z M417.5969238,511.6383057
	c0.2858276,0.2858276,0.5716553,0.5716553,0.8574829,1.1433105c0.5717163,0.8575439,1.7150879,1.7150879,2.8583984,2.5725708
	c1.1433716,0.8574829,2.5725708,1.7150269,4.2876587,2.2866821c2.8583984,1.4292603,6.8601074,2.5726318,11.7194214,3.7159424
	c8.861084,2.2866821,18.8654785,3.4301147,27.7265015,4.2875977c2.5725708,0.2858887,4.859314,0.5717163,7.4318848,0.5717163
	c4.00177-11.4335938,8.861084-22.8671875,14.5778809-34.3007813c-10.2902832,4.5734253-21.4380493,8.5751953-33.1574707,12.005249
	C439.0349121,508.2081909,426.4579468,510.494873,417.5969238,511.6383057z M571.3789673,460.1870117v-0.2858276
	l-2.0009155,4.5734253l10.0043945,30.0132446c-41.1610107,66.8865967-112.3352661,113.4786377-194.6572876,121.1962891
	l-10.5760498,68.0299683c134.059082-5.4309692,246.9660034-92.326416,290.9854126-212.3793945l-3.7158813-11.1477051H571.3789673z
	 M283.2519531,521.3568115c4.859314-1.1433105,8.5751953-2.2866821,11.7194824-3.7159424
	c1.7150269-0.5716553,3.1442871-1.7150269,4.2875977-2.2866821c1.1433716-0.8575439,2.2867432-1.7150879,2.8583984-2.5725708
	c0.2858887-0.2858276,0.5716553-0.8575439,0.8575439-1.1433105c-8.5751953-1.1433716-21.4380493-3.4301147-36.3016968-7.4318848
	c-11.7194824-3.4300537-22.8672485-7.4318848-33.1575317-12.0053101
	c5.7168579,11.4336548,10.5761108,22.5813599,14.5778809,34.3007813c2.5725708-0.2858276,4.859314-0.2858276,7.4318848-0.5716553
	C264.100647,524.7869263,274.3908691,523.6434937,283.2519531,521.3568115z M613.1115723,360.1428833H684v12.5770264
	l-68.0299683,10.5760498l-71.1741943,11.1477661c-15.1495361,24.5822754-31.4424438,49.1644897-45.734436,74.0325928
	c-1.7150879,1.1433716-3.4301147,2.0009155-5.1451416,3.1442871c-22.5813599,12.862793-47.7353516,20.5805054-75.461853,22.8671875
	c2.5725708-6.0026245,6.2885132-11.7194214,10.0044556-17.4362793c2.0008545-3.1442261,4.2875977-6.2884521,7.1459961-10.2902222
	c2.2867432-3.1442871,4.8592529-6.5743408,7.7176514-10.2902832c7.1459961-9.1469116,14.5778809-18.5795898,21.723877-27.4406738
	c3.4301147-4.2875977,7.1459961-8.861084,10.8619385-13.4345093l8.2893677-10.2902832
	c0.2858887-0.5716553,0.5716553-0.8574829,1.1433716-1.4291992c2.2866821-3.1442261,4.5734253-6.2884521,6.8601074-9.1468506
	c2.5725708-3.4300537,5.1451416-7.1459961,7.7177124-10.8619385c0.8575439-1.1433716,1.4291992-2.2867432,2.2867432-3.4300537
	c0.2858276-0.5717163,0.8574829-1.4291992,1.4291992-2.0009155l-13.7203979-4.001709c0,0,0,0.2858276-0.2858276,0.2858276
	c-0.5716553,1.1433716-1.4291992,2.2867432-2.0008545,3.4300537c-2.0009155,3.1442871-4.2875977,6.2885132-7.4318848,10.2902832
	c-4.00177,5.4309692-9.4327393,12.2911377-15.4353638,18.8654785c-0.2858276,0.2858887-0.5716553,0.8575439-0.8575439,1.1433716
	c-7.1459961,8.2893066-15.1495361,16.864563-22.5813599,24.868103c-4.2875977,4.5734253-8.8610229,9.4327393-13.1486816,14.2919922
	c-5.4309082,6.0026855-11.7194214,13.1486816-17.4362793,20.5805054c-2.8583984,3.7159424-5.4309082,7.4318237-8.003479,11.1477661
	c-2.0009155,3.1442261-4.5734863,7.7176514-6.5743408,12.5769043c-1.4291992,3.4301147-3.1442871,8.861084-2.8583984,15.1495972
	c0,6.0026245,2.5725098,12.2911377,6.8601074,16.864502c2.2867432,2.5725708,4.859314,4.5734863,7.4318848,6.2885742
	c2.8583984,1.7150269,5.7167969,3.1442261,8.2893677,4.2875977c4.8592529,2.0009155,10.2902222,3.4301147,16.5787354,4.5734253
	c5.4309082,1.1433716,10.8619385,1.7150879,16.0070801,2.0009155c5.4309082,0.5717163,11.1477661,0.5717163,15.7211914,0.5717163
	c0.2858887,0,0.5716553,0,0.5716553,0c1.1433716,0,2.0009155,0,3.1442871,0
	c-0.8575439,3.1442871-1.4291992,6.2885132-2.2867432,9.4327393l-47.4495239,17.1503906l-29.4415283,10.8618774
	L368.1464233,367.574707l-2.0008545-19.1513062l-3.7159424-38.8742676l-2.2867432,0.8574829v38.0167847v11.1477661v5.1451416
	v231.8164673v86.0379639v1.7150879C181.2068481,684.2858276,36,539.3647461,36,360.4287109v-0.2858276h71.460083h119.4812012
	h18.8654785l0.5717163-2.0008545l-31.1566162-8.5752563l-29.1557007-8.00354l1.1433716-3.1442261
	c53.4520874-23.7247314,111.4777222-46.3061523,172.9333496-54.8813477
	c60.3123169,8.00354,118.3378906,32.0140991,173.2192383,55.7388916l0.8574829,2.2866821l-29.1557007,8.00354l-30.8707275,8.5752563
	l0.5716553,2.0008545h18.8654785H613.1115723z M336.7041016,615.6841431l-5.7167969-37.1592407l-28.0123901-10.5761108
	l-47.4495239-17.1504517c0,0,0,0-0.2858276,0c-0.5716553-3.1442261-1.4291992-6.2885132-2.2867432-9.4326782
	c1.1433716,0,2.0008545,0,3.1442871,0c0.2858276,0,0.5716553,0,0.5716553,0c4.8592529,0,10.2902832,0,15.7211914-0.5717163
	c5.1451416-0.2858887,10.5761108-0.8574829,16.0070801-2.0009155c6.2885132-1.1433716,11.4336548-2.5725708,16.5787354-4.5734863
	c2.5725708-1.1433105,5.4309692-2.2866821,8.2893677-4.2875977c2.2867432-1.7150269,5.1451416-3.7158813,7.4318848-6.2885132
	c4.2875977-4.5734863,6.5743408-10.8619385,6.8601685-16.864563c0-2.8583984,0-7.7176514-2.8584595-15.1495361
	c-2.0008545-4.8592529-4.5734253-9.4327393-6.5742798-12.5769653c-2.2867432-3.7159424-5.1451416-7.7176514-8.00354-11.1477661
	c-5.7168579-7.4318237-12.0053101-14.5778809-17.4362793-20.5805054c-4.2875977-4.8592529-8.861084-9.7185059-13.1486816-14.2919922
	c-7.7177124-8.00354-15.4353638-16.5787354-22.5813599-24.868103c-0.2858887-0.2858276-0.5716553-0.5716553-0.8575439-1.1433105
	c-6.0026855-6.8601685-11.4335938-13.7203369-15.4353638-19.1513062c-2.8583984-4.00177-5.1451416-7.1459961-7.4318848-10.2902832
	c-0.8574829-1.1433105-1.4291992-2.2867432-2.0008545-3.4300537c0,0,0-0.2858887-0.2858276-0.2858887l-13.7203369,4.00177
	c0.5716553,0.5716553,0.8574829,1.4291992,1.4291992,2.0008545c0.8574829,1.1433716,1.4291992,2.2867432,2.2866821,3.4301147
	c2.5725708,3.7158813,5.1451416,7.4318237,7.7177124,10.8619385c2.2867432,3.1442261,4.5734253,6.2884521,6.8601685,9.4327393
	c0.2858276,0.2858276,0.5716553,0.8574829,0.8574829,1.1433105l8.2893677,10.2902832
	c3.7159424,4.5734863,7.1459961,9.1468506,10.8619385,13.4345093c7.1459961,9.1468506,14.8637085,18.2937622,21.723877,27.4406738
	c2.8583984,3.7159424,5.4309692,6.8601074,7.7177124,10.2902222c2.8583984,4.00177,5.1450806,7.1460571,7.1459961,10.2902832
	c3.7159424,5.7167969,7.4318237,11.4336548,10.0043945,17.4362793
	c-27.4406738-2.5725098-52.8804321-10.2902832-75.1760254-22.8671875c-1.7150269-0.8575439-3.4300537-2.0009155-5.1451416-3.1442871
	c-14.0061035-24.868103-30.2990723-49.4503784-45.734436-74.0325928l-71.1741943-11.1477661
	C115.7495117,506.4931641,213.506897,604.536377,336.7041016,615.6841431z"/>
</svg>
