<?xml version="1.0" encoding="utf-8"?>
<!-- Generator: Adobe Illustrator 22.0.1, SVG Export Plug-In . SVG Version: 6.00 Build 0)  -->
<svg version="1.1" id="Layer_1" xmlns="http://www.w3.org/2000/svg" xmlns:xlink="http://www.w3.org/1999/xlink" x="0px" y="0px"
	 width="720px" height="720px" viewBox="0 0 720 720" style="enable-background:new 0 0 720 720;" xml:space="preserve">
<style type="text/css">
	.st0{fill:#FFFFFF;}
	.st1{fill:#DA1A32;}
	.st2{fill:#00438C;}
</style>
<g>
	<path class="st0" d="M435.747345,36H284.0634766c-37.0338135,0-67.0550385,30.0225449-67.0550385,67.0550461V616.755127
		c0,37.0648804,29.9900513,67.1398926,67.0543976,67.244873h151.6838379
		c37.0954895-0.1049805,67.1398315-30.1481934,67.244873-67.244873V103.0550461
		C502.7822571,66.0348434,472.7662048,36.1049805,435.747345,36z"/>
	<path class="st1" d="M380.9194946,145.2748566c-1.9111023-1.9103394-0.9572144-5.92276,0.1898193-7.4507294
		c4.2035217-0.5728607,9.5520935-9.7426758,13.9449463-19.1036606c3.4403076,0.1911774,4.5865173-3.2478027,5.7320862-5.1581345
		c3.8214722-6.1125183,7.8344727-11.2706528,2.6757813-14.709549c11.8441772-21.0139923,4.202179-35.1514282-2.101593-35.7242889
		c-2.6749573-5.1587181-7.0684814-8.4058609-14.9019775-11.2713165h49.0969238
		c28.2024231,0.1049805,51.0073853,22.9962997,51.0073853,51.1978683v247.9668884
		c-1.5610046-3.7791138-3.5492249-7.3677063-5.9220886-10.6977844c0-6.8765564-7.6418457-7.259552-9.3615723-9.3604126
		c-1.7192383-2.1014099,1.9109192-3.4382324-10.8896484-6.3043518c-2.2907715-1.336792-4.2016907-20.0588684-4.2016907-20.0588684
		c-1.9108887-12.2264404-6.1132507-20.4411316-12.6081848-33.2404175
		c-3.2491455-6.6867065-4.7763672-27.1279144-8.2153625-37.4440308
		c2.1009216-47.759552-13.1815796-61.5139771-25.5984192-69.3470612c-4.7765503-2.865448-7.0684814-5.1573792-11.6523438-7.831665
		v-2.1021729C392.9282227,150.6000671,387.1208496,147.4378662,380.9194946,145.2748566z M427.5760498,410.223877
		c-23.4050903-9.3830261-34.7723389-35.962677-25.3893127-59.3684082
		c5.4703979-13.6482239,17.1817627-23.826355,31.4591675-27.343689
		c-5.349884-13.1809082-16.4295349-34.5765991-19.6771851-41.6456299
		c-3.2484436-7.0690613-10.6977844-50.4345093-12.2265015-59.0308685
		c-0.3816833-1.9110107-19.6765137,11.2719727-19.6765137,12.0352631c0,0.7640228-14.5191345,36.1052856-15.0913391,38.0162048
		c-0.5746765,1.9103394-0.3829956,5.92276-0.3829956,5.92276s6.4942627,0.7633667,10.3156128,12.226532
		c3.8213196,11.461731,15.0926514,53.2998657,15.0926514,53.2998657s-3.0566406,3.2478027-3.2478027,3.0559692
		c14.519104,48.3323975,9.3617249,69.1558838,15.8559875,83.293335
		c8.2145386,20.0588379,10.3161316,17.384491,17.3844299,34.1955261
		c4.9675293,12.2245483,10.5074463,60.3677979,12.4181824,62.4698486
		c7.8318481,9.9312134,12.0360413,17.5743408,12.0360413,23.1140747c0,5.5410767-6.6874695,22.1609497-4.2041931,31.9024048
		c1.5274048,5.7322388,2.2932739,18.3416138,4.7750549,20.8234863c2.4845886,2.484436,2.4845886,4.7750854,1.1470337,6.8771973
		c-0.5153503,0.795105-0.7796631,1.7275391-0.7647095,2.6742554c4.3927002,15.0926514,18.149292,41.0748901-4.39151,54.6381226
		h0.5721741c24.9318237-3.8731079,43.2844238-25.3944702,43.1743774-50.6263428V385.277771
		C477.2135925,408.3806152,450.8311768,419.5481262,427.5760498,410.223877z"/>
	<path class="st2" d="M335.2503052,560.7012329v17.8880005c0,5.0595703-1.1235962,6.6367798-5.5105591,6.6367798h-4.6131592
		v-30.7119141v-0.1134033h4.723938C333.9017944,554.4006958,335.2503052,556.4256592,335.2503052,560.7012329z
		 M329.7397461,595.4624634h-4.6131592v0.0006714v28.6889038h4.723938c4.2761841,0,5.3997803-2.25177,5.3997803-6.6394043
		v-15.7496338C335.2503052,597.1499023,333.7890625,595.4624634,329.7397461,595.4624634z M371.3647461,553.2764282h-0.6746216
		c-0.7893066,11.249939-2.3625488,30.8266602-2.8117676,37.123291l-1.4638672,15.9783325h9.6760864l-1.4658813-15.9783325
		C374.1781616,583.9890137,372.3774414,564.5263672,371.3647461,553.2764282z M435.7473145,667.9542847H284.0634766
		c-28.3071899-0.1049805-51.1984253-23.0824585-51.1984253-51.3909302V102.8632813
		c0-28.2755737,22.9216309-51.197876,51.1984253-51.197876h87.1126099
		c-16.6192627,6.4942627-19.1036987,13.7544556-19.6765137,36.8692627
		c-2.8654785,0.1918335-8.7869263-2.4824219-6.6860352,11.6536865c0,0,0.9557495,9.3602905,4.7763672,7.8329468
		c-3.6294556,24.8352661,0.5734863,26.7456055-25.2169189,27.8912354l-1.336853,1.9110107
		c-25.7903442,2.4837646-33.8139038-0.7640381-55.4013672,43.1749268c0,0-5.5397339,13.562561-7.2595215,19.2941284
		c-5.3492432,11.0801392-18.3397217,35.7243042-22.1603394,51.7713013
		c-1.1469116,5.3492432-3.630127,7.0684204-0.1911621,14.9014282c4.9669189,11.270752-3.4389648,14.1361694,25.5986328,13.3728027
		v6.6860352c0,0-7.6419067,6.6867065-9.3610229,10.697876c-1.7191162,4.0130005-6.1125488,24.071228-5.9227295,33.4316406
		c0.572876,24.6447144,20.6323242,45.4682007,26.744873,70.1122437l13.3727417,1.909668
		c7.6412964,17.1934204,40.3095703,63.6135864,46.9956055,69.7280884
		c1.5285645,4.2015991,10.6991577,11.0794678,14.7102051,14.9001465
		c4.0124512,3.821228,27.6992798,29.8027344,55.4001465,45.6599121c-0.1898193,0,4.3953857,9.1692505,6.6859741,16.6186523
		c-9.3595581,7.2595825,8.597168,21.0146484,13.9457397,43.3667603c0.3823853,2.8666992-5.156189,6.1119385,3.0591431,13.3740845
		C428.6782227,640.8256836,418.3620605,658.5925293,435.7473145,667.9542847z M304.201416,542.7016602h-10.7995605v17.2114868
		c0,18.7855835,1.5739746,40.8389893,2.7001953,59.0639648l-13.8386841-76.1640015h-17.0988159v93.0385742h10.7996216v-0.0006714
		h-0.112793v-29.3634644c0-14.2877197-0.3381958-28.0098267-1.2389526-45.2246094l13.8386841,74.4747314h15.7503052V542.7016602z
		 M347.6257935,561.4885254c0-13.0507202-6.4119263-18.675415-16.8752441-18.675415h-18.000061v93.0385742v0.0006714h18.000061
		c10.0128784,0,16.8752441-5.7387085,16.8752441-18.4505615v-13.5004272c0-7.0878296-2.5874634-11.2505493-6.1870728-13.7233276
		c3.5996094-2.1403198,6.1870728-6.4144897,6.1870728-14.8521118V561.4885254z M391.3885498,635.8516846l-10.7995605-93.0385742
		h-17.7758789l-11.2493896,93.0385742h12.4868774l1.5759277-18.9008179h11.2506714l1.4612427,18.9008179H391.3885498z"/>
</g>
</svg>
